<svg id="instagramm" xmlns="http://www.w3.org/2000/svg" width="26" height="26" viewBox="0 0 26 26">
  <defs>
    <style>
      .cls-1 {
        fill: #3f729b;
      }

      .cls-2 {
        fill: #fff;
        fill-rule: evenodd;
      }
    </style>
  </defs>
  <circle id="base" class="cls-1" cx="13" cy="13" r="12.813"/>
  <path id="icon" class="cls-2" d="M17.418,5.8H8.582A2.787,2.787,0,0,0,5.8,8.581v8.837A2.786,2.786,0,0,0,8.582,20.2h8.837A2.786,2.786,0,0,0,20.2,17.418V8.581A2.787,2.787,0,0,0,17.418,5.8Zm0.877,1.61H18.61V9.8L16.2,9.806,16.194,7.415ZM13,10.59A2.409,2.409,0,1,1,10.59,13,2.418,2.418,0,0,1,13,10.59Zm5.624,6.653a1.381,1.381,0,0,1-1.38,1.38H8.732a1.381,1.381,0,0,1-1.38-1.38V11.4h2a4.587,4.587,0,0,0-.29,1.6,3.938,3.938,0,0,0,7.877,0,4.584,4.584,0,0,0-.291-1.6h1.976v5.846Z"/>
</svg>
