<svg id="twitter" xmlns="http://www.w3.org/2000/svg" width="26" height="26" viewBox="0 0 26 26">
  <defs>
    <style>
      .cls-1 {
        fill: #26a6d1;
      }

      .cls-2 {
        fill: #fff;
        fill-rule: evenodd;
      }
    </style>
  </defs>
  <circle id="base" class="cls-1" cx="13" cy="13" r="12.813"/>
  <path id="bird" class="cls-2" d="M21,8.823A6.383,6.383,0,0,1,19.21,9.3a3.051,3.051,0,0,0,1.372-1.675A6.363,6.363,0,0,1,18.6,8.36,3.159,3.159,0,0,0,16.325,7.4a3.074,3.074,0,0,0-3.119,3.028,2.952,2.952,0,0,0,.081.689,8.944,8.944,0,0,1-6.43-3.164,2.95,2.95,0,0,0-.422,1.522A3,3,0,0,0,7.822,12a3.186,3.186,0,0,1-1.413-.379c0,0.013,0,.025,0,0.038a3.054,3.054,0,0,0,2.5,2.969,3.2,3.2,0,0,1-1.409.052,3.112,3.112,0,0,0,2.914,2.1,6.379,6.379,0,0,1-3.874,1.3A6.527,6.527,0,0,1,5.8,18.035,9.022,9.022,0,0,0,10.58,19.4a8.679,8.679,0,0,0,8.875-8.614c0-.131,0-0.263-0.009-0.392A6.232,6.232,0,0,0,21,8.823Z"/>
</svg>
