<svg xmlns="http://www.w3.org/2000/svg" width="104" height="104" viewBox="0 0 104 104">
  <defs>
    <style>
      .cls-1 {
        fill: #fff;
        fill-rule: evenodd;
        opacity: 0.15;
      }
    </style>
  </defs>
  <path id="Forma_1" data-name="Forma 1" class="cls-1" d="M96.377,26.378a51.243,51.243,0,1,0-18.756,70A51.239,51.239,0,0,0,96.377,26.378ZM72.5,87.5A40.993,40.993,0,1,1,87.5,31.5,40.992,40.992,0,0,1,72.5,87.5ZM70.45,49.917L43.614,34.267c-2.445-1.427-4.418-.287-4.4,2.542l0.138,31.063c0.012,2.828,2.009,3.978,4.461,2.563L70.44,55.061C72.887,53.648,72.892,51.344,70.45,49.917Z"/>
</svg>
