<svg id="vimeo" xmlns="http://www.w3.org/2000/svg" width="26" height="26" viewBox="0 0 26 26">
  <defs>
    <style>
      .cls-1 {
        fill: #86c9ef;
      }

      .cls-2 {
        fill: #fff;
        fill-rule: evenodd;
      }
    </style>
  </defs>
  <circle id="base" class="cls-1" cx="13" cy="13" r="12.813"/>
  <path id="v" class="cls-2" d="M5.8,10.6C7,9.644,8.7,7.546,10.026,7.546s1.651,1.565,1.832,2.986,0.7,4.526,1.4,4.526,2.3-2.748,2.21-3.809-1.248-.9-1.885-0.6C14.173,8.528,15.525,7.4,17.254,7.4S19.4,8.621,19.4,10.121c0,2.284-4.628,9.278-7.424,9.278-1.73,0-2.158-2.548-2.508-3.809S8.426,11.023,7.62,10.811a3.132,3.132,0,0,0-1.2.649Z"/>
</svg>
